<svg width="40" height="40" viewBox="0 0 40 40" fill="none" xmlns="http://www.w3.org/2000/svg"><path fill="#CE5FCC" d="M0 0h40v40H0z"/><path fill-rule="evenodd" clip-rule="evenodd" d="M16 8c-5.523 0-8 2.477-8 8v8c0 5.523 2.477 8 8 8h8c5.523 0 8-2.477 8-8v-8c0-5.523-2.477-8-8-8h-8Zm3.281 6.588-3.334 1.28 6.29-5.469a1.629 1.629 0 0 1 2.298.161l1.574 1.811a2.958 2.958 0 0 0-1.477.163l-1.02-1.172a.407.407 0 0 0-.573-.04l-3.758 3.266Zm5.35-2.054-.012.005.013-.005Zm-7.462 4.304H26.706a2.958 2.958 0 0 1 1.464.406l-.832-2.168a2 2 0 0 0-2.584-1.15l-7.585 2.912Zm9.537 0-.642-1.67a.407.407 0 0 0-.526-.235l-4.96 1.905h6.128ZM12.01 26.325V19.81c0-.9.73-1.629 1.629-1.629h13.03c.9 0 1.629.73 1.629 1.63v6.514c0 .9-.73 1.629-1.63 1.629H13.64c-.9 0-1.629-.73-1.629-1.629Zm1.222 0c0 .225.182.407.407.407h13.03a.407.407 0 0 0 .407-.407V19.81a.407.407 0 0 0-.407-.407h-13.03a.407.407 0 0 0-.407.407v6.515Zm8.088-2.322c-.033.884-.75 1.508-1.74 1.508-1.157 0-1.87-.777-1.87-2.038 0-1.26.71-2.034 1.87-2.034.971 0 1.707.648 1.737 1.523h-.945a.773.773 0 0 0-.793-.704c-.538 0-.867.46-.867 1.213 0 .755.33 1.22.87 1.22.423 0 .739-.273.795-.688h.943Zm2.433-2.564c1.162 0 1.9.779 1.9 2.034 0 1.259-.738 2.038-1.9 2.038-1.167 0-1.906-.78-1.906-2.038 0-1.255.747-2.034 1.906-2.034Zm-.905 2.034c0-.744.362-1.22.905-1.22.54 0 .902.476.902 1.22 0 .747-.358 1.224-.902 1.224-.549 0-.905-.477-.905-1.224Zm-7.58-1.22a.814.814 0 1 0 0-1.629.814.814 0 0 0 0 1.63Z" fill="#fff"/></svg>